# xmcd
#
# Track frame offsets:
#	150
#	14645
#	32427
#	50205
#	70850
#	88504
#	104020
#	120272
#	139579
#	155120
#	173015
#	190690
#
# Disc length: 2797 seconds
#
# Revision: 0
# Processed by: cddbd v1.5.1PL0 Copyright (c) Steve Scherf et al.
# Submitted via: dBpowerAMP V4.0
#
DISCID=9e0aeb0c
DTITLE=Various Artist - Entzun
DYEAR=2004
DGENRE=Blues
TTITLE0=Horren beste komeria - Africa
TTITLE1=Aparteko mundua - 
TTITLE2=Paradisuan - 
TTITLE3=Denboraren bidaian - 
TTITLE4=Entzun - 
TTITLE5=Interludio - 
TTITLE6=Benetako amodioa - 
TTITLE7=Revolution - 
TTITLE8=Them belly full (but we hungry) - 
TTITLE9=Zu zeu - 
TTITLE10=Azala ilunagoa - 
TTITLE11=Errealitatea besterik ez - 
EXTD=
EXTT0=
EXTT1=
EXTT2=
EXTT3=
EXTT4=
EXTT5=
EXTT6=
EXTT7=
EXTT8=
EXTT9=
EXTT10=
EXTT11=
PLAYORDER=
